Coordinates
version=1
nRows=5
nColumns=40
inDegrees=yes

Units are S.I. units (second, meters, Newtons, ...)
If the header above contains a line with 'inDegrees', this indicates whether rotational values are in degrees (yes) or radians (no).

endheader
time	pelvis_tilt	pelvis_list	pelvis_rotation	pelvis_tx	pelvis_ty	pelvis_tz	hip_flexion_r	hip_adduction_r	hip_rotation_r	knee_angle_r	knee_angle_r_beta	ankle_angle_r	subtalar_angle_r	mtp_angle_r	hip_flexion_l	hip_adduction_l	hip_rotation_l	knee_angle_l	knee_angle_l_beta	ankle_angle_l	subtalar_angle_l	mtp_angle_l	lumbar_extension	lumbar_bending	lumbar_rotation	arm_flex_r	arm_add_r	arm_rot_r	elbow_flex_r	pro_sup_r	wrist_flex_r	wrist_dev_r	arm_flex_l	arm_add_l	arm_rot_l	elbow_flex_l	pro_sup_l	wrist_flex_l	wrist_dev_l
      2.65500000	     -2.53576699	     -2.28017881	     -2.97295221	      0.15549516	      0.42262314	     -1.21021852	     93.47066650	    -44.24706892	     20.81387441	    127.48872231	      2.22509796	     36.99847248	     15.88678816	      0.00000000	    102.58574385	    -48.86951439	     32.13011651	    126.76067657	      2.21239117	     34.41018647	     24.80167604	      0.00000000	    -24.50266113	      1.03930240	      2.24714590	     44.99992427	    -14.99999999	     44.99992427	     75.00017585	     45.00000026	      0.00000000	      0.00000000	     44.99992427	    -14.99999999	     44.99992427	     75.00017585	     45.00000026	      0.00000000	      0.00000000
      2.66000000	     -2.85317497	     -2.33325724	     -2.99871892	      0.15508916	      0.42393181	     -1.21021996	     93.47494567	    -44.14122254	     20.41989503	    127.24112471	      2.22077657	     36.86678222	     15.61990104	      0.00000000	    102.76878042	    -48.84070832	     31.94858165	    126.55114447	      2.20873414	     34.26601407	     24.62898281	      0.00000000	    -24.19824517	      1.14271380	      2.34756749	     44.99992428	    -14.99999999	     44.99992428	     75.00017585	     45.00000026	      0.00000000	      0.00000000	     44.99992428	    -14.99999999	     44.99992428	     75.00017585	     45.00000026	      0.00000000	      0.00000000
      2.66500000	     -2.90350392	     -2.34590623	     -2.96958647	      0.15461901	      0.42617970	     -1.21028584	     93.12029700	    -44.15764286	     20.00540567	    126.91318502	      2.21505294	     36.76763223	     15.55848927	      0.00000000	    102.42181212	    -48.83388731	     31.50135079	    126.25163427	      2.20350670	     34.14690644	     24.51395467	      0.00000000	    -24.21251793	      1.14651769	      2.30351002	     44.99992428	    -14.99999999	     44.99992428	     75.00017585	     45.00000026	      0.00000000	      0.00000000	     44.99992428	    -14.99999999	     44.99992428	     75.00017585	     45.00000026	      0.00000000	      0.00000000
      2.67000000	     -3.24677101	     -2.35119873	     -3.01710550	      0.15420327	      0.42759096	     -1.21015172	     93.18830894	    -44.00971389	     19.67910681	    126.67719888	      2.21093421	     36.65858619	     15.34942999	      0.00000000	    102.56232505	    -48.84666711	     31.21660200	    126.00290999	      2.19916565	     33.94039969	     24.25903916	      0.00000000	    -23.87304688	      1.15956666	      2.35944627	     44.99992428	    -14.99999999	     44.99992428	     75.00017585	     45.00000026	      0.00000000	      0.00000000	     44.99992428	    -14.99999999	     44.99992428	     75.00017585	     45.00000026	      0.00000000	      0.00000000
      2.67500000	     -3.55715037	     -2.38125139	     -3.02003612	      0.15382849	      0.42921629	     -1.21014127	     93.16900386	    -43.94714064	     19.28300523	    126.40097945	      2.20611327	     36.48200762	     15.12813994	      0.00000000	    102.64496096	    -48.81623090	     30.92817427	    125.73876081	      2.19455537	     33.76269966	     24.09918929	      0.00000000	    -23.54907441	      1.24537945	      2.42310551	     44.99992428	    -14.99999999	     44.99992428	     75.00017585	     45.00000026	      0.00000000	      0.00000000	     44.99992428	    -14.99999999	     44.99992428	     75.00017585	     45.00000026	      0.00000000	      0.00000000
